<svg xmlns="http://www.w3.org/2000/svg" viewBox="0 0 512 512" width="512" height="512">
  <defs>
    <linearGradient id="pwa-grad-512" x1="0%" y1="0%" x2="100%" y2="100%">
      <stop offset="0%" stop-color="#b8572d" />
      <stop offset="100%" stop-color="#8a3b19" />
    </linearGradient>
    <linearGradient id="leaf-grad-512" x1="0%" y1="0%" x2="100%" y2="100%">
      <stop offset="0%" stop-color="#10b981" />
      <stop offset="100%" stop-color="#059669" />
    </linearGradient>
  </defs>
  <!-- Background with rounded corners -->
  <rect width="512" height="512" rx="112" fill="url(#pwa-grad-512)" />
  
  <!-- Inner Glow & Border -->
  <rect x="16" y="16" width="480" height="480" rx="96" fill="none" stroke="rgba(255,255,255,0.15)" stroke-width="6" />

  <!-- Agronomic Leaf and Document Graphic -->
  <g transform="translate(96, 85)">
    <!-- Document shell -->
    <path d="M64 42 h140 l74 74 v170 a32 32 0 0 1 -32 32 h-182 a32 32 0 0 1 -32 -32 v-212 a32 32 0 0 1 32 -32 z" fill="none" stroke="#ffffff" stroke-width="20" stroke-linejoin="round" stroke-linecap="round" />
    <path d="M204 42 v64 a10 10 0 0 0 10 10 h64" fill="none" stroke="#ffffff" stroke-width="20" stroke-linejoin="round" stroke-linecap="round" />
    
    <!-- Organic Leaf Emblem Overlay -->
    <path d="M80 256 C80 148, 200 106, 226 106 C226 200, 200 292, 80 256 Z" fill="url(#leaf-grad-512)" opacity="0.95" />
    <path d="M80 256 C134 208, 174 172, 226 106" fill="none" stroke="#ffffff" stroke-width="10" stroke-linecap="round" />

    <!-- AI Sparkle / Insight -->
    <path d="M214 172 l13 32 l32 13 l-32 13 l-13 32 l-13 -32 l-32 -13 l32 -13 z" fill="#fbbf24" stroke="none" />
  </g>
</svg>
